<?xml version="1.0" encoding="UTF-8" standalone="no"?><!DOCTYPE svg PUBLIC "-//W3C//DTD SVG 1.1//EN" "http://www.w3.org/Graphics/SVG/1.1/DTD/svg11.dtd"><svg width="100%" height="100%" viewBox="0 0 24 24" version="1.1" xmlns="http://www.w3.org/2000/svg" xmlns:xlink="http://www.w3.org/1999/xlink" xml:space="preserve" xmlns:serif="http://www.serif.com/" style="fill-rule:evenodd;clip-rule:evenodd;stroke-linejoin:round;stroke-miterlimit:2;"><path id="create-new-btn" d="M9,15l-7.5,0c-0.828,0 -1.5,-0.672 -1.5,-1.5l0,-3c0,-0.828 0.672,-1.5 1.5,-1.5l7.5,0l0,-7.5c0,-0.828 0.672,-1.5 1.5,-1.5l3,0c0.828,0 1.5,0.672 1.5,1.5l0,7.5l7.5,0c0.828,0 1.5,0.672 1.5,1.5l0,3c0,0.828 -0.672,1.5 -1.5,1.5l-7.5,0l0,7.5c0,0.828 -0.672,1.5 -1.5,1.5l-3,0c-0.828,0 -1.5,-0.672 -1.5,-1.5l0,-7.5Z" style="fill:#025f96;"/></svg>