<?xml version="1.0" encoding="UTF-8" standalone="no"?><!DOCTYPE svg PUBLIC "-//W3C//DTD SVG 1.1//EN" "http://www.w3.org/Graphics/SVG/1.1/DTD/svg11.dtd"><svg width="100%" height="100%" viewBox="0 0 24 24" version="1.1" xmlns="http://www.w3.org/2000/svg" xmlns:xlink="http://www.w3.org/1999/xlink" xml:space="preserve" xmlns:serif="http://www.serif.com/" style="fill-rule:evenodd;clip-rule:evenodd;stroke-linejoin:round;stroke-miterlimit:2;"><path d="M12,8.5c1.932,0 3.5,1.568 3.5,3.5c0,1.932 -1.568,3.5 -3.5,3.5c-1.932,0 -3.5,-1.568 -3.5,-3.5c0,-1.932 1.568,-3.5 3.5,-3.5Zm8.5,0c1.932,0 3.5,1.568 3.5,3.5c0,1.932 -1.568,3.5 -3.5,3.5c-1.932,0 -3.5,-1.568 -3.5,-3.5c0,-1.932 1.568,-3.5 3.5,-3.5Zm-17,0c1.932,0 3.5,1.568 3.5,3.5c0,1.932 -1.568,3.5 -3.5,3.5c-1.932,0 -3.5,-1.568 -3.5,-3.5c0,-1.932 1.568,-3.5 3.5,-3.5Z" style="fill:#025f96;"/></svg>