<?xml version="1.0" encoding="UTF-8" standalone="no"?><!DOCTYPE svg PUBLIC "-//W3C//DTD SVG 1.1//EN" "http://www.w3.org/Graphics/SVG/1.1/DTD/svg11.dtd"><svg width="100%" height="100%" viewBox="0 0 24 24" version="1.1" xmlns="http://www.w3.org/2000/svg" xmlns:xlink="http://www.w3.org/1999/xlink" xml:space="preserve" xmlns:serif="http://www.serif.com/" style="fill-rule:evenodd;clip-rule:evenodd;stroke-linejoin:round;stroke-miterlimit:2;"><path d="M2.842,14.701l-2.842,-0.635l0,-4.131l2.842,-0.635c0.193,-0.653 0.453,-1.277 0.773,-1.863l-1.562,-2.46l2.921,-2.921l2.46,1.562c0.587,-0.32 1.21,-0.581 1.863,-0.773l0.635,-2.842l4.131,0l0.635,2.842c0.653,0.193 1.277,0.453 1.863,0.773l2.46,-1.562l2.921,2.921l-1.562,2.46c0.32,0.587 0.581,1.21 0.773,1.863l2.842,0.635l0,4.131l-2.842,0.635c-0.193,0.653 -0.453,1.277 -0.773,1.863l1.562,2.46l-2.921,2.921l-2.46,-1.562c-0.587,0.32 -1.21,0.581 -1.863,0.773l-0.635,2.842l-4.131,0l-0.635,-2.842c-0.653,-0.193 -1.277,-0.453 -1.863,-0.773l-2.46,1.562l-2.921,-2.921l1.562,-2.46c-0.32,-0.587 -0.581,-1.21 -0.773,-1.863Zm9.158,-7.454c-2.623,0 -4.753,2.13 -4.753,4.753c0,2.623 2.13,4.753 4.753,4.753c2.623,0 4.753,-2.13 4.753,-4.753c0,-2.623 -2.13,-4.753 -4.753,-4.753Z" style="fill:#025f96;"/></svg>