<?xml version="1.0" encoding="UTF-8" standalone="no"?><!DOCTYPE svg PUBLIC "-//W3C//DTD SVG 1.1//EN" "http://www.w3.org/Graphics/SVG/1.1/DTD/svg11.dtd"><svg width="100%" height="100%" viewBox="0 0 24 24" version="1.1" xmlns="http://www.w3.org/2000/svg" xmlns:xlink="http://www.w3.org/1999/xlink" xml:space="preserve" xmlns:serif="http://www.serif.com/" style="fill-rule:evenodd;clip-rule:evenodd;stroke-linecap:round;stroke-linejoin:round;stroke-miterlimit:1.5;"><path id="priorityTop" d="M15.323,3.323l0,10.131c0,1.001 -0.784,1.813 -1.75,1.813l-3.5,0c-0.966,0 -1.75,-0.813 -1.75,-1.813l0,-10.131c0,-1.001 0.784,-1.813 1.75,-1.813l3.5,0c0.966,0 1.75,0.813 1.75,1.813Zm0,15.521l0,2.321c0,0.641 -0.502,1.161 -1.12,1.161l-4.76,0c-0.618,0 -1.12,-0.52 -1.12,-1.161l0,-2.321c0,-0.641 0.502,-1.161 1.12,-1.161l4.76,0c0.618,0 1.12,0.52 1.12,1.161Z" style="fill:#f00;stroke:#000;stroke-width:0.42px;"/></svg>