<?xml version="1.0" encoding="UTF-8" standalone="no"?><!DOCTYPE svg PUBLIC "-//W3C//DTD SVG 1.1//EN" "http://www.w3.org/Graphics/SVG/1.1/DTD/svg11.dtd"><svg width="100%" height="100%" viewBox="0 0 24 24" version="1.1" xmlns="http://www.w3.org/2000/svg" xmlns:xlink="http://www.w3.org/1999/xlink" xml:space="preserve" xmlns:serif="http://www.serif.com/" style="fill-rule:evenodd;clip-rule:evenodd;stroke-linejoin:round;stroke-miterlimit:2;"><path d="M11.929,0.276c6.471,0 11.724,5.253 11.724,11.724c0,6.471 -5.253,11.724 -11.724,11.724c-6.471,0 -11.724,-5.253 -11.724,-11.724c0,-6.471 5.253,-11.724 11.724,-11.724Zm0.879,14.809c0.005,-0.514 0.074,-0.974 0.208,-1.379c0.134,-0.405 0.391,-0.781 0.771,-1.127c0.442,-0.412 0.852,-0.827 1.233,-1.246c0.38,-0.419 0.689,-0.87 0.927,-1.352c0.238,-0.482 0.356,-1.023 0.356,-1.624c0,-0.823 -0.171,-1.529 -0.512,-2.116c-0.341,-0.587 -0.834,-1.036 -1.48,-1.345c-0.646,-0.31 -1.423,-0.464 -2.331,-0.464c-0.822,0 -1.566,0.146 -2.23,0.439c-0.664,0.293 -1.192,0.73 -1.585,1.31c-0.392,0.58 -0.596,1.299 -0.612,2.155l2.457,0c0.009,-0.445 0.106,-0.805 0.291,-1.08c0.185,-0.275 0.426,-0.479 0.725,-0.611c0.299,-0.132 0.617,-0.199 0.953,-0.199c0.407,0 0.749,0.078 1.023,0.235c0.275,0.157 0.483,0.384 0.624,0.681c0.141,0.297 0.212,0.658 0.212,1.083c0,0.396 -0.074,0.745 -0.222,1.045c-0.148,0.3 -0.347,0.584 -0.597,0.852c-0.25,0.268 -0.532,0.551 -0.846,0.85c-0.402,0.393 -0.724,0.767 -0.964,1.12c-0.24,0.353 -0.411,0.746 -0.513,1.178c-0.102,0.432 -0.155,0.964 -0.159,1.595l2.27,0Zm-2.474,3.176c0,0.364 0.125,0.673 0.374,0.927c0.25,0.254 0.592,0.381 1.026,0.381c0.438,0 0.783,-0.127 1.032,-0.381c0.25,-0.254 0.375,-0.563 0.375,-0.927c0,-0.372 -0.125,-0.685 -0.375,-0.939c-0.25,-0.254 -0.594,-0.381 -1.032,-0.381c-0.434,0 -0.776,0.127 -1.026,0.381c-0.25,0.254 -0.374,0.567 -0.374,0.939Z" style="fill:#025f96;"/></svg>