<?xml version="1.0" encoding="UTF-8" standalone="no"?><!DOCTYPE svg PUBLIC "-//W3C//DTD SVG 1.1//EN" "http://www.w3.org/Graphics/SVG/1.1/DTD/svg11.dtd"><svg width="100%" height="100%" viewBox="0 0 24 24" version="1.1" xmlns="http://www.w3.org/2000/svg" xmlns:xlink="http://www.w3.org/1999/xlink" xml:space="preserve" xmlns:serif="http://www.serif.com/" style="fill-rule:evenodd;clip-rule:evenodd;stroke-linejoin:round;stroke-miterlimit:2;"><path d="M3.246,14.582l-2.717,-0.607l0,-3.949l2.717,-0.607c0.184,-0.624 0.433,-1.22 0.739,-1.781l-1.493,-2.352l2.793,-2.793l2.352,1.493c0.561,-0.306 1.157,-0.555 1.781,-0.739l0.607,-2.717l3.949,0l0.607,2.717c0.624,0.184 1.22,0.433 1.781,0.739l2.352,-1.493l2.793,2.793l-1.493,2.352c0.306,0.561 0.555,1.157 0.739,1.781l2.717,0.607l0,3.949l-2.717,0.607c-0.184,0.624 -0.433,1.22 -0.739,1.781l1.493,2.352l-2.793,2.793l-2.352,-1.493c-0.561,0.306 -1.157,0.555 -1.781,0.739l-0.607,2.717l-3.949,0l-0.607,-2.717c-0.624,-0.184 -1.22,-0.433 -1.781,-0.739l-2.352,1.493l-2.793,-2.793l1.493,-2.352c-0.306,-0.561 -0.555,-1.157 -0.739,-1.781Zm8.754,-8.807c-3.436,0 -6.225,2.789 -6.225,6.225c0,3.436 2.789,6.225 6.225,6.225c3.436,0 6.225,-2.789 6.225,-6.225c0,-3.436 -2.789,-6.225 -6.225,-6.225Z" style="fill:#025f96;"/></svg>